# xmcd CD database file
#
# Track frame offsets:
#	150
#	35420
#	60204
#	118619
#	158020
#	182862
#	216781
#	258511
#
# Disc length: 3775 seconds
#
# Revision: 1
# Processed by: cddbd v1.5.2PL0 Copyright (c) Steve Scherf et al.
# Submitted via: CDex 1.51
#
DISCID=660ebd08
DTITLE=Michael Adkins Quartet - Rotator
DYEAR=2008
DGENRE=Jazz
TTITLE0=Rotator
TTITLE1=Their May Wings
TTITLE2=Silent Screen
TTITLE3=Pearl 21
TTITLE4=Forena
TTITLE5=Encrypted
TTITLE6=Number five
TTITLE7=Reflection
EXTD=YEAR: 2008
EXTT0=
EXTT1=
EXTT2=
EXTT3=
EXTT4=
EXTT5=
EXTT6=
EXTT7=
PLAYORDER=
